<?xml version="1.0" encoding="UTF-8"?>
<svg width="120" height="40" viewBox="0 0 120 40" fill="none" xmlns="http://www.w3.org/2000/svg">
    <path d="M20.5 8C13.6 8 8 13.6 8 20.5S13.6 33 20.5 33 33 27.4 33 20.5 27.4 8 20.5 8zm0 22.5c-5.5 0-10-4.5-10-10s4.5-10 10-10 10 4.5 10 10-4.5 10-10 10z" fill="#7CEDED"/>
    <path d="M45 16v9h3v-9h-3zm0-3.5V15h3v-2.5h-3z" fill="#7CEDED"/>
    <path d="M55 16v1.2c-1-1-2.3-1.5-3.7-1.5-3.2 0-5.8 2.6-5.8 5.8s2.6 5.8 5.8 5.8c1.4 0 2.7-.5 3.7-1.5V27h3v-11h-3zm-3.2 8.8c-1.8 0-3.3-1.5-3.3-3.3s1.5-3.3 3.3-3.3 3.3 1.5 3.3 3.3-1.5 3.3-3.3 3.3z" fill="#7CEDED"/>
    <path d="M69.4 16.2c-1.4 0-2.7.5-3.7 1.5V16h-3v11h3v-6.2c0-1.8 1.5-3.3 3.3-3.3.9 0 1.7.4 2.3 1l2.1-2.1c-1-.8-2.2-1.2-3.4-1.2z" fill="#7CEDED"/>
    <path d="M82.5 16.2c-1.4 0-2.7.5-3.7 1.5V12h-3v15h3v-6.2c0-1.8 1.5-3.3 3.3-3.3.9 0 1.7.4 2.3 1l2.1-2.1c-1-.8-2.2-1.2-3.4-1.2z" fill="#7CEDED"/>
    <path d="M92.3 24.8c-1.8 0-3.3-1.5-3.3-3.3s1.5-3.3 3.3-3.3c.9 0 1.7.4 2.3 1l2.1-2.1c-1-.8-2.2-1.2-3.4-1.2-3.2 0-5.8 2.6-5.8 5.8s2.6 5.8 5.8 5.8c1.2 0 2.4-.4 3.4-1.2l-2.1-2.1c-.6.6-1.4 1-2.3 1z" fill="#7CEDED"/>
    <path d="M105 16v1.2c-1-1-2.3-1.5-3.7-1.5-3.2 0-5.8 2.6-5.8 5.8s2.6 5.8 5.8 5.8c1.4 0 2.7-.5 3.7-1.5V27h3v-11h-3zm-3.2 8.8c-1.8 0-3.3-1.5-3.3-3.3s1.5-3.3 3.3-3.3 3.3 1.5 3.3 3.3-1.5 3.3-3.3 3.3z" fill="#7CEDED"/></svg>
