<?xml version="1.0" encoding="UTF-8"?>
<svg width="120" height="40" viewBox="0 0 120 40" fill="none" xmlns="http://www.w3.org/2000/svg">
    <path d="M20 8c-3.3 0-6 2.7-6 6v12c0 3.3 2.7 6 6 6s6-2.7 6-6V14c0-3.3-2.7-6-6-6zm3 18c0 1.7-1.3 3-3 3s-3-1.3-3-3V14c0-1.7 1.3-3 3-3s3 1.3 3 3v12z" fill="#ffffff"/>
    <path d="M38 8c-3.3 0-6 2.7-6 6v12c0 3.3 2.7 6 6 6s6-2.7 6-6V14c0-3.3-2.7-6-6-6zm3 18c0 1.7-1.3 3-3 3s-3-1.3-3-3V14c0-1.7 1.3-3 3-3s3 1.3 3 3v12z" fill="#ffffff"/>
    <path d="M62 14v12c0 3.3-2.7 6-6 6s-6-2.7-6-6V14h3v12c0 1.7 1.3 3 3 3s3-1.3 3-3V14h3z" fill="#ffffff"/>
    <path d="M77 14l-4.5 7.5L68 14h-3.2l6.2 10.3V32h3v-7.7L80.2 14H77z" fill="#ffffff"/>
    <path d="M95 14v12c0 3.3-2.7 6-6 6s-6-2.7-6-6V14h3v12c0 1.7 1.3 3 3 3s3-1.3 3-3V14h3z" fill="#ffffff"/>
    <path d="M103 29.3c-1.8 0-3.3-1.5-3.3-3.3V14h-3v12c0 3.3 2.7 6 6 6s6-2.7 6-6V14h-3v12c0 1.8-1.5 3.3-3.3 3.3z" fill="#ffffff"/></svg>
